PathFileType	3	(X/Y/Z)	D:\VICON_DB\Goncalves\Pilot01\09-03-2026\bw_sq_140_01.trc
DataRate	CameraRate	NumFrames	NumMarkers	Units	OrigDataRate	OrigDataStartFrame	OrigNumFrames
200.0	200.0	9	34	mm	200.0	115	913	
Frame#	Time	LASI			RASI			LPSI			RPSI			LTHI			LTHAP			LTHAD			LKNE			LKNM			LTIB			LTIAP			LTIAD			LANK			LMED			LHEE			LTOE			LFMH			LSMH			LVMH			RTHI			RTHAP			RTHAD			RKNE			RKNM			RTIB			RTIAP			RTIAD			RANK			RMED			RHEE			RTOE			RFMH			RSMH			RVMH			
		X1	Y1	Z1	X2	Y2	Z2	X3	Y3	Z3	X4	Y4	Z4	X5	Y5	Z5	X6	Y6	Z6	X7	Y7	Z7	X8	Y8	Z8	X9	Y9	Z9	X10	Y10	Z10	X11	Y11	Z11	X12	Y12	Z12	X13	Y13	Z13	X14	Y14	Z14	X15	Y15	Z15	X16	Y16	Z16	X17	Y17	Z17	X18	Y18	Z18	X19	Y19	Z19	X20	Y20	Z20	X21	Y21	Z21	X22	Y22	Z22	X23	Y23	Z23	X24	Y24	Z24	X25	Y25	Z25	X26	Y26	Z26	X27	Y27	Z27	X28	Y28	Z28	X29	Y29	Z29	X30	Y30	Z30	X31	Y31	Z31	X32	Y32	Z32	X33	Y33	Z33	X34	Y34	Z34	
115	0.57	123.70415	858.79395	-1089.7583	115.24837	861.46295	-1351.8409				312.95578	910.48114	-1252.3643	140.91458	690.26288	-999.7298	162.10631	752.70752	-1017.4039	185.50438	632.89404	-960.61102	199.84631	473.42117	-935.83746				246.14265	289.10892	-878.46844	164.00798	353.01822	-916.78552	198.46786	260.16797	-872.34082	266.41818	77.044617	-844.54346				279.9075	57.83894	-910.23132	185.75607	73.657562	-824.7923	123.26761	46.230003	-819.09192				170.53586	30.055861	-755.06671	172.26163	632.05957	-1471.8665	130.68286	743.12427	-1411.0833	109.77006	658.89014	-1428.8756	204.4465	490.04767	-1483.4758				239.37653	306.45828	-1543.4335	173.37856	346.47235	-1508.4265	181.55119	268.58615	-1530.9688	265.51236	64.037056	-1566.83				275.51627	55.953457	-1515.1368	178.44159	71.114594	-1604.3451	120.8763	50.921425	-1608.4106				167.21011	21.422722	-1665.806
116	0.575	123.47491	858.83447	-1089.6005	115.30762	861.42322	-1351.6589				313.11688	910.41052	-1251.9535	140.5188	690.23181	-999.55707	161.70229	752.71246	-1017.1942	185.08195	632.89148	-960.37213	199.5146	473.41989	-935.56				245.94875	289.09909	-878.32306	163.79497	352.979	-916.5755	198.29039	260.13882	-872.14789	266.3963	77.064659	-844.49072				279.85126	57.891956	-910.22162	185.75708	73.584534	-824.64825	123.33924	46.191612	-818.85199				170.65417	29.847982	-754.82031	172.55952	631.97406	-1471.5398	130.89439	743.00409	-1410.8097	110.04881	658.76422	-1428.557	204.86562	489.98203	-1483.1013				239.74283	306.46579	-1543.178	173.7771	346.49295	-1508.1383	181.86899	268.6405	-1530.7657	265.55273	64.01931	-1566.8182				275.53632	55.933167	-1515.1567	178.48289	71.126732	-1604.343	120.89947	50.952862	-1608.4369				167.22211	21.40103	-1665.8134
117	0.58	123.23849	858.85956	-1089.4489	115.36615	861.37793	-1351.4818				313.29422	910.32648	-1251.5226	140.11206	690.19501	-999.39368	161.28377	752.70715	-1016.9932	184.63773	632.89233	-960.11932	199.16623	473.42001	-935.26013				245.75706	289.08908	-878.16577	163.57768	352.93912	-916.34222	198.11392	260.11133	-871.93372	266.37912	77.083984	-844.43439				279.79089	57.949055	-910.21014	185.76338	73.50647	-824.48602	123.4209	46.149845	-818.58679				170.7877	29.614609	-754.54346	172.87558	631.88635	-1471.2112	131.11107	742.8855	-1410.5471	110.33405	658.64008	-1428.2574	205.2997	489.91241	-1482.7158				240.11281	306.47198	-1542.918	174.17723	346.51501	-1507.851	182.18788	268.69473	-1530.564	265.59399	64.00061	-1566.8105				275.55942	55.908379	-1515.1747	178.52684	71.138695	-1604.3398	120.92495	50.986137	-1608.4633				167.23299	21.381485	-1665.8195
118	0.585	122.99667	858.86951	-1089.3027	115.42455	861.32623	-1351.3104				313.4852	910.229	-1251.0754	139.69734	690.15472	-999.23779	160.85455	752.69281	-1016.7998	184.17509	632.89758	-959.85211	198.80188	473.42215	-934.93829				245.56743	289.07956	-877.99646	163.35524	352.89932	-916.08612	197.93845	260.08563	-871.69946	266.36557	77.102783	-844.37494				279.72733	58.009995	-910.19629	185.77382	73.424843	-824.30908	123.50957	46.105125	-818.30426				170.93111	29.360966	-754.24365	173.20895	631.79675	-1470.8823	131.33206	742.76886	-1410.2971	110.62479	658.51788	-1427.9781	205.74605	489.83926	-1482.3215				240.48373	306.47638	-1542.6544	174.57593	346.53827	-1507.5659	182.50551	268.74814	-1530.3636	265.63577	63.981056	-1566.8071				275.58609	55.878494	-1515.1902	178.57288	71.150452	-1604.3346	120.95239	51.020741	-1608.4886				167.24252	21.364656	-1665.824
119	0.59	122.75107	858.86511	-1089.1615	115.48332	861.26727	-1351.1449				313.68729	910.11847	-1250.616	139.27762	690.11304	-999.08667	160.41859	752.67139	-1016.6125	183.69781	632.90784	-959.57056	198.42264	473.42676	-934.5957				245.37968	289.07104	-877.81586	163.12712	352.86002	-915.80878	197.76399	260.06189	-871.44727	266.35458	77.121292	-844.31317				279.66135	58.074459	-910.18011	185.78737	73.341118	-824.12085	123.60237	46.057796	-818.01227				171.07932	29.092161	-753.92816	173.55832	631.70532	-1470.5538	131.55632	742.6546	-1410.0605	110.91998	658.39795	-1427.7196	206.20152	489.76352	-1481.9209				240.85275	306.4787	-1542.3885	174.97021	346.56247	-1507.2841	182.81924	268.80002	-1530.1655	265.6777	63.96077	-1566.8073				275.61658	55.843174	-1515.2028	178.62036	71.16198	-1604.3269	120.98142	51.056118	-1608.5125				167.2506	21.35113	-1665.8259
120	0.595	122.50322	858.84747	-1089.024	115.54297	861.20074	-1350.986				313.89807	909.99512	-1250.1477	138.85565	690.07227	-998.93732	159.97955	752.64502	-1016.4288	183.20992	632.92377	-959.27527	198.03012	473.43417	-934.23413				245.1937	289.0643	-877.625	162.89307	352.82159	-915.51227	197.59065	260.04028	-871.17932	266.34537	77.139778	-844.24976				279.59369	58.142075	-910.16113	185.80322	73.256592	-823.9248	123.69681	46.008213	-817.7182				171.22786	28.813042	-753.60382	173.92197	631.61249	-1470.2274	131.78281	742.54303	-1409.8373	111.21851	658.2807	-1427.4817	206.66263	489.68649	-1481.5173				241.21709	306.47855	-1542.1211	175.3571	346.58731	-1507.0062	183.12657	268.84982	-1529.9701	265.71945	63.939861	-1566.8104				275.65079	55.802536	-1515.2122	178.6685	71.173294	-1604.3163	121.01157	51.091763	-1608.5333				167.25699	21.341463	-1665.8247
121	0.6	122.2545	858.8186	-1088.8893	115.60397	861.12653	-1350.8335				314.11505	909.86041	-1249.6744	138.43407	690.03442	-998.78668	159.54053	752.61633	-1016.2465	182.71542	632.94568	-958.96698	197.62637	473.44473	-933.85583				245.0094	289.05972	-877.42523	162.65327	352.78433	-915.19928	197.41833	260.021	-870.89856	266.33713	77.158539	-844.18573				279.52493	58.21241	-910.1394	185.82088	73.172462	-823.72375	123.79079	45.956741	-817.42798				171.37279	28.528088	-753.27686	174.29771	631.51862	-1469.9036	132.01047	742.43439	-1409.6277	111.51929	658.16644	-1427.2633	207.12598	489.60901	-1481.1129				241.57399	306.47565	-1541.8529	175.73386	346.61243	-1506.733	183.42485	268.89673	-1529.7775	265.7608	63.918495	-1566.8159				275.68832	55.757084	-1515.2188	178.71645	71.184517	-1604.3019	121.04227	51.1273	-1608.551				167.26169	21.336151	-1665.819
122	0.605	122.00614	858.78027	-1088.7562	115.66678	861.04523	-1350.6871				314.33582	909.71631	-1249.2	138.01543	690.00183	-998.63159	159.10481	752.58795	-1016.0627	182.21852	632.97351	-958.64691	197.21382	473.45859	-933.46387				244.82683	289.05792	-877.2182	162.40828	352.74857	-914.8728	197.24698	260.00412	-870.60767	266.32925	77.177864	-844.12177				279.45566	58.285023	-910.11493	185.83998	73.08979	-823.52063	123.88274	45.90379	-817.14697				171.51102	28.241396	-752.95276	174.68304	631.42438	-1469.584	132.23843	742.32886	-1409.4309	111.82119	658.05573	-1427.0632	207.58838	489.53183	-1480.7103				241.92079	306.4697	-1541.5853	176.09775	346.63751	-1506.4655	183.71159	268.94034	-1529.5884	265.80161	63.896843	-1566.8236				275.72852	55.707485	-1515.222	178.7634	71.195778	-1604.2833	121.07303	51.162315	-1608.5641				167.26469	21.335594	-1665.8076
123	0.61	121.75922	858.73492	-1088.6243	115.73183	860.95752	-1350.5469				314.55807	909.56494	-1248.7273	137.60205	689.97632	-998.46924	158.67598	752.56213	-1015.8762	181.72337	633.00726	-958.31665	196.7953	473.47577	-933.06128				244.64606	289.05933	-877.00525	162.15904	352.7146	-914.5365	197.07655	259.98978	-870.31006	266.32138	77.198067	-844.05872				279.38654	58.359486	-910.08795	185.86038	73.009415	-823.31793	123.97147	45.849831	-816.87897				171.6402	27.956673	-752.63623	175.07512	631.33063	-1469.2692	132.46587	742.22687	-1409.2462	112.12309	657.94885	-1426.8792	208.04669	489.45554	-1480.3108				242.255	306.46072	-1541.3187	176.44647	346.66229	-1506.2034	183.9846	268.98013	-1529.4028	265.84161	63.87516	-1566.8323				275.77084	55.654484	-1515.2227	178.8085	71.207359	-1604.2599	121.1035	51.196327	-1608.5723				167.26601	21.340137	-1665.7896
